<svg width="122" height="43" viewBox="0 0 122 43" fill="none" xmlns="http://www.w3.org/2000/svg">
<path d="M82.0087 14.4499C79.6809 14.4499 77.5694 15.3869 76.0289 16.9046C74.4591 18.4516 73.4847 20.6005 73.4847 22.9739C73.4847 26.2436 70.825 28.905 67.5537 28.905C66.2962 28.905 65.1282 28.5113 64.1684 27.8411L73.7401 16.9436L72.603 16.1059C71.1308 15.0225 69.387 14.4499 67.5537 14.4499C62.854 14.4499 59.0312 18.2743 59.0312 22.9739C59.0312 27.6735 62.854 31.4963 67.5537 31.4963C72.2533 31.4963 76.0761 27.6735 76.0761 22.9739C76.0761 21.6254 76.5283 20.3793 77.288 19.3805C78.3746 17.9587 80.086 17.0396 82.0087 17.0396C83.7868 17.0396 85.4541 17.8269 86.5863 19.1983L88.5856 17.5504C86.9589 15.5788 84.5627 14.4482 82.0104 14.4482L82.0087 14.4499ZM61.621 22.9739C61.621 19.7026 64.2807 17.0412 67.552 17.0412C68.3394 17.0412 69.1039 17.1925 69.8132 17.487L62.4051 25.9215C61.9057 25.0529 61.621 24.0459 61.621 22.9755V22.9739ZM88.5937 28.3844C86.9686 30.3625 84.5676 31.4963 82.0087 31.4963C79.7216 31.4963 77.532 30.5658 75.9427 28.9586C76.4762 28.2071 76.9155 27.3791 77.2376 26.499C78.3535 28.007 80.1348 28.905 82.0087 28.905C83.8827 28.905 85.4607 28.116 86.5929 26.7382L88.5937 28.3828V28.3844Z" fill="#0171FF"/>
<path d="M19.9695 31.4266C17.7555 31.4266 15.9531 29.6242 15.9531 27.4102V14.7315H18.5445V27.4102C18.5445 28.1959 19.1838 28.8352 19.9695 28.8352C20.7552 28.8352 21.3945 28.1959 21.3945 27.4102V21.6028C21.3945 17.697 24.5715 14.52 28.4773 14.52H28.7717C32.6775 14.52 35.8545 17.697 35.8545 21.6028V31.3143H33.2631V21.6028C33.2631 19.1269 31.2476 17.1114 28.7717 17.1114H28.4773C26.0014 17.1114 23.9859 19.1269 23.9859 21.6028V27.4102C23.9859 29.6258 22.1835 31.4266 19.9695 31.4266Z" fill="white"/>
<path d="M49.8552 14.52H43.9453V31.4266H49.8552C54.5158 31.4266 58.3077 27.6347 58.3077 22.9741C58.3077 18.3135 54.5158 14.5216 49.8552 14.5216V14.52ZM49.8552 28.8352H46.5367V17.1114H49.8552C53.0875 17.1114 55.7179 19.7418 55.7179 22.9741C55.7179 26.2064 53.0875 28.8368 49.8552 28.8368V28.8352Z" fill="white"/>
<path d="M42.8101 14.7314H40.2188V31.3143H42.8101V14.7314Z" fill="white"/>
<path d="M44.958 1C40.2942 1 36.4991 4.79515 36.4991 9.45897V11.4241H36.4681V14.0154H36.4991V33.541C36.4991 36.7766 33.867 39.4086 30.6315 39.4086H29.3203V42H30.6315C35.2953 42 39.0904 38.2048 39.0904 33.541V14.0154H42.8091V11.4241H39.0904V9.45897C39.0904 6.22342 41.7225 3.59138 44.958 3.59138H46.2692V1H44.958Z" fill="white"/>
<path d="M93.1797 22.4179L106.981 14.4502H101.8L92.8023 19.6443V14.4502H90.2109V21.1393V23.6965V31.0314H92.8023V25.1915L102.917 31.0314H108.098L93.1797 22.4179Z" fill="white"/>
<path d="M17.1134 13.1142C16.775 13.1142 16.4318 13.0589 16.095 12.9417C15.5045 12.7368 14.9954 12.3659 14.6212 11.8681C14.5497 11.7721 14.5692 11.6371 14.6652 11.5655C14.7611 11.494 14.8962 11.5135 14.9677 11.6094C15.2898 12.0389 15.729 12.3577 16.2366 12.5351C17.6372 13.0198 19.1712 12.2748 19.6559 10.8742C19.8446 10.3276 19.8544 9.74848 19.6836 9.19702C19.6478 9.08315 19.7113 8.96114 19.8251 8.92698C19.939 8.89119 20.0594 8.95463 20.0952 9.0685C20.2936 9.70781 20.2839 10.3813 20.0643 11.0157C19.6185 12.3041 18.4066 13.1142 17.1134 13.1142Z" fill="#0171FF"/>
<path d="M14.2912 10.8662C14.1936 10.8662 14.1041 10.7995 14.0813 10.6987C13.9479 10.126 13.9789 9.52904 14.1724 8.97107C14.4457 8.18374 15.0086 7.54932 15.7585 7.18493C16.5084 6.82055 17.3543 6.77012 18.1416 7.04341C18.6313 7.21259 19.0754 7.50377 19.4235 7.88605C19.5032 7.97389 19.4983 8.11054 19.4089 8.19188C19.321 8.27159 19.1844 8.2667 19.103 8.17723C18.8037 7.84863 18.4214 7.59812 17.9985 7.45171C17.3201 7.21746 16.5914 7.25976 15.9456 7.57372C15.2998 7.88768 14.815 8.43425 14.5791 9.1126C14.4132 9.59248 14.3855 10.1065 14.501 10.5994C14.5287 10.7149 14.4555 10.8321 14.34 10.8597C14.3237 10.863 14.3074 10.8662 14.2912 10.8662Z" fill="white"/>
</svg>
